<svg xmlns="http://www.w3.org/2000/svg" width="1600" height="900" viewBox="0 0 1600 900" role="img" aria-labelledby="title desc">
  <title id="title">OpenClaw Continuity English concept illustration</title>
  <desc id="desc">A friendly concept illustration for continuity, time sense, carryover, and natural-language settings in OpenClaw.</desc>
  <defs>
    <linearGradient id="bg" x1="0" y1="0" x2="1" y2="1">
      <stop offset="0%" stop-color="#fff6eb"/>
      <stop offset="100%" stop-color="#f4fbff"/>
    </linearGradient>
    <linearGradient id="panel" x1="0" y1="0" x2="1" y2="1">
      <stop offset="0%" stop-color="#ffffff"/>
      <stop offset="100%" stop-color="#fff8f1"/>
    </linearGradient>
    <filter id="shadow" x="-20%" y="-20%" width="140%" height="160%">
      <feDropShadow dx="0" dy="16" stdDeviation="22" flood-color="#d8c8bb" flood-opacity="0.35"/>
    </filter>
    <style>
      .title { font: 700 64px -apple-system, BlinkMacSystemFont, "Helvetica Neue", Arial, sans-serif; fill: #7a2d18; }
      .subtitle { font: 400 28px -apple-system, BlinkMacSystemFont, "Helvetica Neue", Arial, sans-serif; fill: #6d625d; }
      .section { font: 700 28px -apple-system, BlinkMacSystemFont, "Helvetica Neue", Arial, sans-serif; fill: #5a3024; }
      .body { font: 400 22px -apple-system, BlinkMacSystemFont, "Helvetica Neue", Arial, sans-serif; fill: #554d49; }
      .chip { font: 600 20px -apple-system, BlinkMacSystemFont, "Helvetica Neue", Arial, sans-serif; fill: #7a2d18; }
      .small { font: 500 18px -apple-system, BlinkMacSystemFont, "Helvetica Neue", Arial, sans-serif; fill: #6e625c; }
    </style>
  </defs>

  <rect width="1600" height="900" rx="40" fill="url(#bg)"/>
  <circle cx="1290" cy="135" r="180" fill="#ffe2cc" opacity="0.55"/>
  <circle cx="145" cy="765" r="150" fill="#dff3ff" opacity="0.7"/>

  <text x="110" y="140" class="title">OpenClaw Continuity</text>
  <text x="110" y="190" class="subtitle">State-backed continuity, time sense, care, and follow-up for OpenClaw agents.</text>

  <g filter="url(#shadow)">
    <rect x="92" y="255" width="470" height="525" rx="36" fill="url(#panel)"/>
    <rect x="585" y="255" width="430" height="525" rx="36" fill="url(#panel)"/>
    <rect x="1038" y="255" width="470" height="525" rx="36" fill="url(#panel)"/>
  </g>

  <g>
    <text x="130" y="320" class="section">Normal chat stays normal</text>
    <text x="130" y="365" class="body">Small talk, short replies, and ordinary conversation stay clean.</text>
    <text x="130" y="400" class="body">Follow-up logic does not take over the frontstage voice.</text>
    <rect x="130" y="450" width="150" height="48" rx="24" fill="#ffe7d2"/>
    <text x="150" y="481" class="chip">casual chat</text>
    <rect x="294" y="450" width="170" height="48" rx="24" fill="#e6f6ff"/>
    <text x="317" y="481" class="chip">new chat carryover</text>
    <path d="M150 555 C210 520, 305 520, 360 555" fill="none" stroke="#d28a68" stroke-width="8" stroke-linecap="round"/>
    <path d="M215 628 q35 -72 108 -72 q68 0 98 49" fill="none" stroke="#86b4ca" stroke-width="8" stroke-linecap="round"/>
    <circle cx="205" cy="665" r="54" fill="#ffd4be"/>
    <circle cx="348" cy="650" r="54" fill="#d9f0ff"/>
    <circle cx="188" cy="648" r="7" fill="#6b4337"/>
    <circle cx="222" cy="648" r="7" fill="#6b4337"/>
    <path d="M188 680 q18 14 34 0" fill="none" stroke="#6b4337" stroke-width="5" stroke-linecap="round"/>
    <circle cx="331" cy="635" r="7" fill="#416273"/>
    <circle cx="365" cy="635" r="7" fill="#416273"/>
    <path d="M331 667 q18 14 34 0" fill="none" stroke="#416273" stroke-width="5" stroke-linecap="round"/>
    <text x="130" y="740" class="small">`/new` can reconnect the right pending thread instead of dragging</text>
    <text x="130" y="770" class="small">generic or unrelated history back into the conversation.</text>
  </g>

  <g>
    <text x="620" y="320" class="section">Time sense with real context</text>
    <text x="620" y="365" class="body">It looks at elapsed time, day boundary, and sleep phase</text>
    <text x="620" y="400" class="body">before deciding whether to care, follow up, or stay quiet.</text>
    <circle cx="800" cy="525" r="108" fill="#fff0dd" stroke="#e1a87c" stroke-width="12"/>
    <circle cx="800" cy="525" r="16" fill="#7a2d18"/>
    <path d="M800 525 L800 455" stroke="#7a2d18" stroke-width="10" stroke-linecap="round"/>
    <path d="M800 525 L858 548" stroke="#7a2d18" stroke-width="10" stroke-linecap="round"/>
    <path d="M707 598 q92 88 186 0" fill="none" stroke="#8fbf9e" stroke-width="12" stroke-linecap="round"/>
    <circle cx="738" cy="452" r="26" fill="#e8f7ff"/>
    <text x="725" y="459" class="chip">night</text>
    <circle cx="864" cy="452" r="26" fill="#fff4bf"/>
    <text x="852" y="459" class="chip">day</text>
    <rect x="650" y="645" width="120" height="46" rx="23" fill="#ffe7d2"/>
    <text x="670" y="675" class="chip">day shift</text>
    <rect x="786" y="645" width="130" height="46" rx="23" fill="#e6f6ff"/>
    <text x="804" y="675" class="chip">elapsed time</text>
    <rect x="934" y="645" width="136" height="46" rx="23" fill="#eaf8e7"/>
    <text x="957" y="675" class="chip">routine phase</text>
    <text x="620" y="740" class="small">Time sense is not just “today / yesterday”.</text>
    <text x="620" y="770" class="small">It uses real delay and sleep-wake context before wording follow-up.</text>
  </g>

  <g>
    <text x="1075" y="320" class="section">Settings can be changed by talking</text>
    <text x="1075" y="365" class="body">Users do not need to live inside config files.</text>
    <text x="1075" y="400" class="body">Ordinary language can adjust schedule, care, and tracking rhythm.</text>
    <rect x="1084" y="452" width="378" height="82" rx="26" fill="#fff4ec" stroke="#efc8ac" stroke-width="4"/>
    <text x="1110" y="489" class="body">Help me adjust my follow-up settings</text>
    <text x="1110" y="520" class="small">Check in less often after midnight</text>
    <rect x="1084" y="558" width="378" height="82" rx="26" fill="#eef8ff" stroke="#c7deec" stroke-width="4"/>
    <text x="1110" y="595" class="body">Tone, routine, care frequency</text>
    <text x="1110" y="626" class="small">tracking rhythm, closure rules, quiet hours</text>
    <rect x="1084" y="664" width="378" height="82" rx="26" fill="#eef9ef" stroke="#c9e3cb" stroke-width="4"/>
    <text x="1110" y="701" class="body">Result</text>
    <text x="1110" y="732" class="small">More control without turning the agent into a settings UI</text>
  </g>
</svg>
